<svg xmlns="http://www.w3.org/2000/svg" xmlns:xlink="http://www.w3.org/1999/xlink" viewBox="0 0 13.16 20"><defs><clipPath id="a"><path d="M1223.61-1697.61a2.43,2.43,0,0,1,2.44-2.43,2.43,2.43,0,0,1,2.43,2.43,2.43,2.43,0,0,1-2.43,2.43,2.43,2.43,0,0,1-2.44-2.43" style="fill:none;clip-rule:evenodd"/></clipPath><clipPath id="b"><path d="M1223.61-1697.61h.55a1.89,1.89,0,0,1,1.89-1.88,1.89,1.89,0,0,1,1.88,1.88,1.89,1.89,0,0,1-1.88,1.88,1.89,1.89,0,0,1-1.89-1.88h-1.1a3,3,0,0,0,3,3,3,3,0,0,0,3-3,3,3,0,0,0-3-3,3,3,0,0,0-3,3Z" style="fill:none;clip-rule:evenodd"/></clipPath><clipPath id="c"><path d="M1084.4-1718.22a51.1,51.1,0,0,1,51.1-51.1,51.1,51.1,0,0,1,51.1,51.1,51.1,51.1,0,0,1-51.1,51.1,51.1,51.1,0,0,1-51.1-51.1" style="fill:none;clip-rule:evenodd"/></clipPath><clipPath id="d"><path d="M1220.13-1711.74a1.05,1.05,0,0,1,1.48.06,1.05,1.05,0,0,1-.06,1.48,1,1,0,0,1-1.48-.06,1.05,1.05,0,0,1,.06-1.48" style="fill:none;clip-rule:evenodd"/></clipPath><clipPath id="e"><path d="M1219.75-1719a1.53,1.53,0,0,1,1.6-1.47,1.55,1.55,0,0,1,1.47,1.61,1.54,1.54,0,0,1-1.6,1.46,1.53,1.53,0,0,1-1.47-1.6" style="fill:none;clip-rule:evenodd"/></clipPath><clipPath id="f"><path d="M1045.23-1666.82s.4-5.16,1-9.13,1.29-8.92,5.46-11.1c3.33-1.75,13.79-7,13.79-7h25.2s9.16,4.29,13.52,6.47a11.69,11.69,0,0,1,6.71,8.36c.59,3,1.19,12.45,1.19,12.45" style="fill:none;clip-rule:evenodd"/></clipPath><clipPath id="g"><rect x="1044.68" y="-1694.65" width="67.96" height="27.87" style="fill:none"/></clipPath><clipPath id="h"><polygon points="1075.18 -1686.64 1078.07 -1692.17 1080.96 -1686.64 1079.62 -1682.29 1082.99 -1666.82 1074.81 -1666.82 1076.7 -1682.29 1075.18 -1686.64" style="fill:none;clip-rule:evenodd"/></clipPath><clipPath id="i"><path d="M1070.1-1705.43v6.56a4.72,4.72,0,0,0,1.56,2.38c1.19.89,6.41,4.32,6.41,4.32l5.91-3.74a2.71,2.71,0,0,0,1.49-2.09v-7.45" style="fill:none;clip-rule:evenodd"/></clipPath><clipPath id="j"><path d="M1059.75-1733c.19,3,.59,14,3.42,19.49s7.89,9.23,10.27,10.12a11.47,11.47,0,0,0,8.63,0c3-1.34,7.58-5.65,8.93-9.22a40.41,40.41,0,0,0,2.23-11.46,71.37,71.37,0,0,0,0-9.82c-.3-4-4.89-13.09-4.89-13.09-7.36,2.58-14-3.87-22,1.19a13.43,13.43,0,0,0-6.54,12.79" style="fill:none;clip-rule:evenodd"/></clipPath><clipPath id="k"><path d="M1060.07-1728.38a4,4,0,0,0-5.08,3,6.48,6.48,0,0,0,2.38,7.59,10.08,10.08,0,0,0,4.61,1.11,109.24,109.24,0,0,1-1.91-11.69" style="fill:none;clip-rule:evenodd"/></clipPath><clipPath id="l"><path d="M1093.52-1728.38a4.15,4.15,0,0,1,5.52,2.31c2,4-.67,6.93-1.82,8-1.69,1.56-4.89,1.56-4.89,1.56a59.71,59.71,0,0,0,1.19-11.88" style="fill:none;clip-rule:evenodd"/></clipPath><clipPath id="m"><path d="M1091.26-1747.77a11.12,11.12,0,0,0-3.54-5.44,16.75,16.75,0,0,0-15.28-1.79c-6.91,2.69-8.68,7-11.86,7.23-4.39.29-6,3.48-4.36,7,2.61,5.68.7,8.39,2.07,11.89a5.56,5.56,0,0,0,1.94,2.49l-.36-4.74s5.66-5.5,7.3-10.78c0,0,6.24,3.71,13,3.1a34.85,34.85,0,0,0,7.37-1.49s2.43,6.4,5.76,8l.19,3.93,0,2.49c1.47-1.19,3-6.84,3.17-8.65a41.6,41.6,0,0,0,.08-7.86c-.36-2.88-1.4-4.88-5.47-5.37" style="fill:none;clip-rule:evenodd"/></clipPath><clipPath id="n"><path d="M1070.1-1702.49s-3.59-.55-3.74,1.53-.89,7-.89,7,3,8.18,7.72,11.16l4.88-9.37s-6.6-4.31-7-4.91-1-.56-1-2.83Z" style="fill:none;clip-rule:evenodd"/></clipPath><clipPath id="o"><path d="M1085.47-1702.49s3.29-.7,3.8,1.24,1.4,7.29,1.4,7.29-3,8.18-7.72,11.16l-4.88-9.37s6.6-4.31,7-4.91.38-.56.38-2.83Z" style="fill:none;clip-rule:evenodd"/></clipPath><clipPath id="p"><path d="M1099.53-1726.31a4.71,4.71,0,0,0-4.3-3,4.9,4.9,0,0,0-1.28.17v-.35c0-1.33,0-2.75-.17-4.46-.17-2.16-1.41-5.43-2.6-8.23s-2.35-5.07-2.35-5.08l-.22-.43-.46.16a11,11,0,0,1-3.72.61c-3.59,0-7.23-1.44-11.22-1.45a13.07,13.07,0,0,0-7.21,2.09,13.87,13.87,0,0,0-6.84,12.2c0,.4,0,.76,0,1.1,0,.79.12,2.18.24,3.88l-.54,0a4.5,4.5,0,0,0-2.39.65,5.13,5.13,0,0,0-2,2.87,8.47,8.47,0,0,0-.41,2.51,7,7,0,0,0,3,5.71,9.68,9.68,0,0,0,4.48,1.18,19.23,19.23,0,0,0,1.14,2.93,25.32,25.32,0,0,0,6.87,8.16v2h-.44a5.45,5.45,0,0,0-2,.33,2.06,2.06,0,0,0-1.34,1.79c-.07,1-.3,2.75-.5,4.24s-.39,2.7-.39,2.71l0,.13,0,.14a34.38,34.38,0,0,0,2.11,4.54c1.36,2.46,3.31,5.31,5.84,6.9l.51.31,4.66-9,4.66,9,.51-.31c2.53-1.59,4.48-4.44,5.84-6.9a34.38,34.38,0,0,0,2.11-4.54l0-.14,0-.14s-.87-5.26-1.41-7.34a2.18,2.18,0,0,0-1.32-1.47,4.36,4.36,0,0,0-1.73-.3,5.41,5.41,0,0,0-.74,0v-2.24c.51-.44,1-.9,1.51-1.39a17.27,17.27,0,0,0,4-5.65,31.9,31.9,0,0,0,1.07-3.55,8.46,8.46,0,0,0,5-1.71,7.86,7.86,0,0,0,2.7-5.56A6.88,6.88,0,0,0,1099.53-1726.31Zm-41.86,8a5.89,5.89,0,0,1-2.52-4.79,7.18,7.18,0,0,1,.36-2.17,3.92,3.92,0,0,1,1.59-2.27,3.36,3.36,0,0,1,1.8-.49,3.54,3.54,0,0,1,.63.06c.1,1.18.22,2.47.39,3.81a51,51,0,0,0,1.3,6.82A8.1,8.1,0,0,1,1057.67-1718.26Zm15.34,34.62a19.11,19.11,0,0,1-5-6.13c-.65-1.18-1.16-2.28-1.51-3.09-.25-.57-.41-1-.48-1.16.11-.7.74-4.94.88-6.9a.93.93,0,0,1,.67-.84,4,4,0,0,1,1.53-.24l.44,0v3.18l0,.06a2.33,2.33,0,0,0,.1.32,2.75,2.75,0,0,0,.26.81,5.26,5.26,0,0,0,.67.85.55.55,0,0,0,.1.11,5.16,5.16,0,0,0,.63.6c.73.54,2.83,2,4.44,3l1.58,1Zm3.69-10.1-1.67-1.12c-.85-.57-1.71-1.17-2.38-1.65-.34-.24-.62-.45-.84-.62l-.08-.07a3.94,3.94,0,0,1-.8-1.06c-.09-.19-.15-.35-.2-.48a7,7,0,0,1-.07-1.17v-4.37a13.42,13.42,0,0,0,2.58,1.43,13.63,13.63,0,0,0,4.72.88,10.5,10.5,0,0,0,4.33-.89,15.3,15.3,0,0,0,2.63-1.61c0,.56,0,1.32,0,2.12v.85c0,1,0,2,0,2.75a6.25,6.25,0,0,1-.05.91.14.14,0,0,1,0,.07,1,1,0,0,1-.21.37,13.67,13.67,0,0,1-1.34,1c-1,.73-2.41,1.66-3.54,2.42l-1.69,1.11Zm10.06-8.32a3.53,3.53,0,0,1,1.29.21,1.09,1.09,0,0,1,.69.74c.25,1,.61,2.79.89,4.36.24,1.32.42,2.41.48,2.73s-.23.6-.48,1.16c-1,2.29-3.36,7-6.49,9.23l-4.35-8.35,5.47-3.46a3.49,3.49,0,0,0,.84-.61,2.7,2.7,0,0,0,.92-1.94v-4A5.17,5.17,0,0,1,1086.76-1702.06Zm3.72-10.73a16.17,16.17,0,0,1-3.73,5.25,18.43,18.43,0,0,1-4.91,3.67,9.7,9.7,0,0,1-3.88.8,12.78,12.78,0,0,1-4.33-.81c-2.2-.82-7.24-4.5-10-9.86a16.44,16.44,0,0,1-1-2.59l-.12-.49s-.32-1.42-.72-3.58-.87-5.08-1.17-8l0-.37h0c-.14-1.84-.22-3.36-.27-4.22l-.55,0,.55,0c0-.31,0-.65,0-1a12.77,12.77,0,0,1,6.33-11.27,11.91,11.91,0,0,1,6.62-1.91c3.71,0,7.35,1.43,11.22,1.44a12.4,12.4,0,0,0,3.61-.54l.52,1.07c.65,1.37,1.63,3.51,2.48,5.67a23.16,23.16,0,0,1,1.63,5.75c.13,1.69.18,3.07.18,4.38,0,1.78-.09,3.39-.18,5.38A39.35,39.35,0,0,1,1090.48-1712.79Zm6.36-5.68a5.89,5.89,0,0,1-2.8,1.24c-.39.07-.74.11-1,.14a61.7,61.7,0,0,0,1-10.66v-.24a3.76,3.76,0,0,1,1.16-.18c1,0,2.3.36,3.31,2.35a5.79,5.79,0,0,1,.65,2.6A6.83,6.83,0,0,1,1096.84-1718.47Z" style="fill:none;clip-rule:evenodd"/></clipPath><clipPath id="q"><polygon points="1079.62 -1682.38 1078.16 -1682.38 1076.7 -1682.38 1078.16 -1682.38 1079.62 -1682.38" style="fill:none;clip-rule:evenodd"/></clipPath><clipPath id="r"><polygon points="1079.62 -1682.38 1079.62 -1682.93 1078.16 -1682.93 1076.7 -1682.93 1076.7 -1681.83 1078.16 -1681.83 1079.62 -1681.83 1079.62 -1682.93 1079.62 -1682.38 1079.62 -1682.93 1078.16 -1682.93 1076.7 -1682.93 1076.7 -1681.83 1078.16 -1681.83 1079.62 -1681.83 1079.62 -1682.93 1079.62 -1682.38" style="fill:none;clip-rule:evenodd"/></clipPath><clipPath id="s"><path d="M1056-1724.54a2.18,2.18,0,0,1,1.53-2c1.4-.54,3.18,1.3,3.25,1.38l-.43.42c-.44-.46-1.75-1.58-2.61-1.24a1.6,1.6,0,0,0-1.15,1.45Z" style="fill:none;clip-rule:evenodd"/></clipPath><clipPath id="t"><path d="M1098.14-1724.55a2.19,2.19,0,0,0-1.56-2c-1.42-.53-3.24,1.31-3.31,1.38l.44.42c.44-.46,1.79-1.57,2.66-1.24a1.61,1.61,0,0,1,1.17,1.45Z" style="fill:none;clip-rule:evenodd"/></clipPath><clipPath id="u"><rect x="1044.57" y="-1769.32" width="184.46" height="102.54" style="fill:none"/></clipPath></defs><title>dia_arrow</title><polyline points="2.36 2.24 10.12 10 2.36 17.76" style="fill:none;stroke:#fff;stroke-miterlimit:10;stroke-width:2px"/></svg>