<svg xmlns="http://www.w3.org/2000/svg" xmlns:xlink="http://www.w3.org/1999/xlink" viewBox="0 0 58 58"><defs><linearGradient id="a" x1="29" x2="29" y2="58" gradientUnits="userSpaceOnUse"><stop offset="0" stop-color="#c1ae55"/><stop offset="1" stop-color="#664820"/></linearGradient><linearGradient id="b" x1="5.98" y1="29" x2="52.02" y2="29" gradientUnits="userSpaceOnUse"><stop offset="0" stop-color="#664820"/><stop offset="0.5" stop-color="#c1ae55"/><stop offset="1" stop-color="#664820"/></linearGradient><linearGradient id="c" x1="27.8" y1="16.24" x2="27.8" y2="41.67" xlink:href="#a"/><clipPath id="d"><path d="M1101.68-2308.06a2.43,2.43,0,0,1,2.43-2.44,2.44,2.44,0,0,1,2.43,2.44,2.43,2.43,0,0,1-2.43,2.43,2.43,2.43,0,0,1-2.43-2.43" style="fill:none;clip-rule:evenodd"/></clipPath><clipPath id="e"><path d="M1101.68-2308.06h.55a1.88,1.88,0,0,1,1.88-1.88,1.88,1.88,0,0,1,1.88,1.88,1.88,1.88,0,0,1-1.88,1.88,1.88,1.88,0,0,1-1.88-1.88h-1.11a3,3,0,0,0,3,3,3,3,0,0,0,3-3,3,3,0,0,0-3-3,3,3,0,0,0-3,3Z" style="fill:none;clip-rule:evenodd"/></clipPath><clipPath id="f"><path d="M962.47-2328.67a51.1,51.1,0,0,1,51.1-51.1,51.1,51.1,0,0,1,51.1,51.1,51.1,51.1,0,0,1-51.1,51.1,51.1,51.1,0,0,1-51.1-51.1" style="fill:none;clip-rule:evenodd"/></clipPath><clipPath id="g"><path d="M1098.2-2322.19a1.05,1.05,0,0,1,1.48.06,1,1,0,0,1-.07,1.48,1.05,1.05,0,0,1-1.48-.06,1,1,0,0,1,.07-1.48" style="fill:none;clip-rule:evenodd"/></clipPath><clipPath id="h"><path d="M1097.81-2329.46a1.54,1.54,0,0,1,1.61-1.47,1.54,1.54,0,0,1,1.46,1.6,1.53,1.53,0,0,1-1.6,1.47,1.54,1.54,0,0,1-1.47-1.6" style="fill:none;clip-rule:evenodd"/></clipPath><clipPath id="i"><path d="M923.29-2277.27s.4-5.16,1-9.13,1.29-8.92,5.45-11.1c3.33-1.75,13.79-7.05,13.79-7.05h25.21s9.15,4.29,13.51,6.47a11.62,11.62,0,0,1,6.71,8.36c.6,3,1.19,12.45,1.19,12.45" style="fill:none;clip-rule:evenodd"/></clipPath><clipPath id="j"><rect x="922.74" y="-2305.1" width="67.96" height="27.87" style="fill:none"/></clipPath><clipPath id="k"><polygon points="953.24 -2297.09 956.13 -2302.63 959.03 -2297.09 957.68 -2292.74 961.05 -2277.27 952.87 -2277.27 954.76 -2292.74 953.24 -2297.09" style="fill:none;clip-rule:evenodd"/></clipPath><clipPath id="l"><path d="M948.17-2315.88v6.56a4.75,4.75,0,0,0,1.55,2.38c1.19.89,6.42,4.31,6.42,4.31l5.9-3.73a2.71,2.71,0,0,0,1.49-2.09v-7.45" style="fill:none;clip-rule:evenodd"/></clipPath><clipPath id="m"><path d="M937.81-2343.43c.19,3,.6,14,3.43,19.49s7.88,9.23,10.26,10.12a11.48,11.48,0,0,0,8.63,0c3-1.34,7.59-5.65,8.93-9.22a40.13,40.13,0,0,0,2.23-11.46,71.37,71.37,0,0,0,0-9.82c-.29-4-4.89-13.1-4.89-13.1-7.35,2.58-14-3.86-22,1.19a13.45,13.45,0,0,0-6.55,12.8" style="fill:none;clip-rule:evenodd"/></clipPath><clipPath id="n"><path d="M938.14-2338.83a4,4,0,0,0-5.09,3,6.48,6.48,0,0,0,2.38,7.59,10.08,10.08,0,0,0,4.61,1.11,110.7,110.7,0,0,1-1.9-11.69" style="fill:none;clip-rule:evenodd"/></clipPath><clipPath id="o"><path d="M971.58-2338.83a4.15,4.15,0,0,1,5.52,2.31c2,4-.67,6.93-1.82,8-1.68,1.57-4.88,1.57-4.88,1.57a60.24,60.24,0,0,0,1.18-11.88" style="fill:none;clip-rule:evenodd"/></clipPath><clipPath id="p"><path d="M969.33-2358.22a11.2,11.2,0,0,0-3.54-5.44,16.77,16.77,0,0,0-15.29-1.79c-6.91,2.69-8.67,7-11.86,7.23-4.39.29-6,3.48-4.35,7,2.6,5.69.69,8.4,2.06,11.9a5.64,5.64,0,0,0,1.94,2.49l-.36-4.74s5.67-5.5,7.3-10.78c0,0,6.25,3.71,13,3.1a35.79,35.79,0,0,0,7.37-1.49s2.42,6.4,5.75,8l.19,3.93,0,2.49c1.46-1.19,3-6.84,3.16-8.65a42.4,42.4,0,0,0,.09-7.86c-.37-2.88-1.41-4.88-5.47-5.37" style="fill:none;clip-rule:evenodd"/></clipPath><clipPath id="q"><path d="M948.17-2312.94s-3.6-.55-3.75,1.53-.89,7-.89,7,3,8.18,7.73,11.16l4.88-9.38s-6.6-4.3-7-4.9-.94-.57-.94-2.83Z" style="fill:none;clip-rule:evenodd"/></clipPath><clipPath id="r"><path d="M963.53-2312.94s3.3-.7,3.81,1.24,1.4,7.29,1.4,7.29-3,8.18-7.73,11.16l-4.88-9.38s6.6-4.3,7-4.9.37-.57.37-2.83Z" style="fill:none;clip-rule:evenodd"/></clipPath><clipPath id="s"><path d="M977.59-2336.77a4.7,4.7,0,0,0-4.3-2.95,5,5,0,0,0-1.28.17v-.35c0-1.33,0-2.75-.17-4.46-.17-2.17-1.41-5.43-2.6-8.23s-2.35-5.07-2.35-5.08l-.22-.43-.45.16a11.13,11.13,0,0,1-3.73.61c-3.58,0-7.23-1.44-11.21-1.45a13.11,13.11,0,0,0-7.22,2.09,13.85,13.85,0,0,0-6.83,12.2c0,.4,0,.76,0,1.1,0,.79.12,2.18.25,3.88-.17,0-.35,0-.55,0a4.47,4.47,0,0,0-2.38.66,5.09,5.09,0,0,0-2.06,2.87,8.37,8.37,0,0,0-.41,2.51,7,7,0,0,0,3,5.71,9.68,9.68,0,0,0,4.48,1.18,19.75,19.75,0,0,0,1.14,2.92,25.26,25.26,0,0,0,6.88,8.17v2h-.45a5.24,5.24,0,0,0-2,.33,2.06,2.06,0,0,0-1.34,1.78c-.07,1-.29,2.76-.49,4.25s-.4,2.7-.4,2.71l0,.13,0,.14a36,36,0,0,0,2.11,4.54c1.36,2.45,3.32,5.31,5.84,6.9l.51.31,4.66-9,4.66,9,.51-.31c2.53-1.59,4.49-4.45,5.85-6.9a36,36,0,0,0,2.11-4.54l0-.14,0-.14s-.88-5.26-1.42-7.34a2.22,2.22,0,0,0-1.32-1.48,4.71,4.71,0,0,0-1.73-.3c-.28,0-.52,0-.74,0v-2.24c.52-.43,1-.89,1.52-1.38a17.33,17.33,0,0,0,4-5.65,31.9,31.9,0,0,0,1.07-3.55,8.49,8.49,0,0,0,5-1.71,7.9,7.9,0,0,0,2.7-5.56A6.84,6.84,0,0,0,977.59-2336.77Zm-41.85,8.06a5.86,5.86,0,0,1-2.52-4.79,6.88,6.88,0,0,1,.36-2.17,4,4,0,0,1,1.58-2.27,3.29,3.29,0,0,1,1.8-.49,3.45,3.45,0,0,1,.63.06c.1,1.18.23,2.47.4,3.81a51,51,0,0,0,1.29,6.82A8.1,8.1,0,0,1,935.74-2328.71Zm15.33,34.61a18.91,18.91,0,0,1-5-6.12,33.54,33.54,0,0,1-1.51-3.09c-.25-.57-.41-1-.48-1.16.1-.7.73-4.94.87-6.9a1,1,0,0,1,.67-.84,4.31,4.31,0,0,1,1.53-.25c.18,0,.31,0,.45,0v3.24s0,.13.1.32a2.89,2.89,0,0,0,.26.8,5,5,0,0,0,.67.86.57.57,0,0,0,.11.11,4.43,4.43,0,0,0,.62.6c.73.54,2.84,1.95,4.45,3l1.58,1Zm3.69-10.1-1.67-1.11c-.85-.57-1.71-1.17-2.38-1.65-.34-.24-.62-.45-.83-.62l-.09-.07a4.41,4.41,0,0,1-.8-1.06c-.09-.19-.15-.35-.2-.48a8.31,8.31,0,0,1-.07-1.18v-4.36a13.76,13.76,0,0,0,2.59,1.43,13.58,13.58,0,0,0,4.72.88,10.39,10.39,0,0,0,4.33-.9,13.77,13.77,0,0,0,2.62-1.61v5.73a6.94,6.94,0,0,1,0,.91.25.25,0,0,0,0,.07,1.13,1.13,0,0,1-.21.37,14.34,14.34,0,0,1-1.35,1c-1,.73-2.41,1.66-3.53,2.41l-1.7,1.12Zm10.06-8.31a3.58,3.58,0,0,1,1.3.21,1.07,1.07,0,0,1,.68.74c.26,1,.61,2.79.89,4.36.24,1.32.43,2.41.48,2.73s-.23.6-.48,1.16c-1,2.29-3.36,7-6.49,9.23l-4.34-8.35,5.47-3.46a4.08,4.08,0,0,0,.84-.61,2.7,2.7,0,0,0,.91-1.95v-4A5.27,5.27,0,0,1,964.82-2312.51Zm3.72-10.73a16.24,16.24,0,0,1-3.72,5.25,18.81,18.81,0,0,1-4.91,3.67,9.74,9.74,0,0,1-3.88.8,12.6,12.6,0,0,1-4.34-.82c-2.2-.81-7.23-4.49-10-9.85a16.43,16.43,0,0,1-1-2.59l-.11-.49s-.33-1.42-.72-3.58-.88-5.08-1.17-8l0-.37h0c-.14-1.83-.21-3.35-.27-4.21l-.55,0,.55,0q0-.47,0-1a12.75,12.75,0,0,1,6.32-11.27,12,12,0,0,1,6.63-1.92c3.7,0,7.34,1.44,11.21,1.45a12.69,12.69,0,0,0,3.61-.54c.13.25.31.62.52,1.07.65,1.36,1.63,3.51,2.48,5.67a23.7,23.7,0,0,1,1.64,5.75c.12,1.68.17,3.07.17,4.38,0,1.78-.08,3.39-.17,5.37A39,39,0,0,1,968.54-2323.24Zm6.37-5.68a5.92,5.92,0,0,1-2.81,1.24c-.39.07-.73.11-1,.14a60.44,60.44,0,0,0,1.06-10.66v-.24a3.63,3.63,0,0,1,1.15-.18c1,0,2.3.36,3.31,2.35a5.76,5.76,0,0,1,.65,2.6A6.83,6.83,0,0,1,974.91-2328.92Z" style="fill:none;clip-rule:evenodd"/></clipPath><clipPath id="t"><polygon points="957.68 -2292.83 956.22 -2292.83 954.76 -2292.83 956.22 -2292.83 957.68 -2292.83" style="fill:none;clip-rule:evenodd"/></clipPath><clipPath id="u"><polygon points="957.68 -2292.83 957.68 -2293.39 956.22 -2293.39 954.76 -2293.39 954.76 -2292.28 956.22 -2292.28 957.68 -2292.28 957.68 -2293.39 957.68 -2292.83 957.68 -2293.39 956.22 -2293.39 954.76 -2293.39 954.76 -2292.28 956.22 -2292.28 957.68 -2292.28 957.68 -2293.39 957.68 -2292.83" style="fill:none;clip-rule:evenodd"/></clipPath><clipPath id="v"><path d="M934-2335a2.18,2.18,0,0,1,1.53-2c1.4-.54,3.18,1.3,3.26,1.38l-.43.41c-.44-.45-1.76-1.57-2.61-1.24a1.61,1.61,0,0,0-1.15,1.46Z" style="fill:none;clip-rule:evenodd"/></clipPath><clipPath id="w"><path d="M976.21-2335a2.17,2.17,0,0,0-1.56-2c-1.43-.54-3.24,1.31-3.32,1.38l.44.42c.45-.46,1.79-1.58,2.66-1.24a1.6,1.6,0,0,1,1.17,1.45Z" style="fill:none;clip-rule:evenodd"/></clipPath><clipPath id="x"><rect x="922.63" y="-2379.77" width="184.46" height="102.54" style="fill:none"/></clipPath><clipPath id="y"><path d="M980.68-2211.06a2.43,2.43,0,0,1,2.43-2.44,2.44,2.44,0,0,1,2.43,2.44,2.43,2.43,0,0,1-2.43,2.43,2.43,2.43,0,0,1-2.43-2.43" style="fill:none;clip-rule:evenodd"/></clipPath><clipPath id="z"><path d="M980.68-2211.06h.55a1.88,1.88,0,0,1,1.88-1.88,1.88,1.88,0,0,1,1.88,1.88,1.88,1.88,0,0,1-1.88,1.88,1.88,1.88,0,0,1-1.88-1.88h-1.11a3,3,0,0,0,3,3,3,3,0,0,0,3-3,3,3,0,0,0-3-3,3,3,0,0,0-3,3Z" style="fill:none;clip-rule:evenodd"/></clipPath><clipPath id="aa"><path d="M841.47-2231.67a51.1,51.1,0,0,1,51.1-51.1,51.1,51.1,0,0,1,51.1,51.1,51.1,51.1,0,0,1-51.1,51.1,51.1,51.1,0,0,1-51.1-51.1" style="fill:none;clip-rule:evenodd"/></clipPath><clipPath id="ab"><path d="M977.2-2225.19a1.05,1.05,0,0,1,1.48.06,1,1,0,0,1-.07,1.48,1.05,1.05,0,0,1-1.48-.06,1,1,0,0,1,.07-1.48" style="fill:none;clip-rule:evenodd"/></clipPath><clipPath id="ac"><path d="M976.81-2232.46a1.54,1.54,0,0,1,1.61-1.47,1.54,1.54,0,0,1,1.46,1.6,1.53,1.53,0,0,1-1.6,1.47,1.54,1.54,0,0,1-1.47-1.6" style="fill:none;clip-rule:evenodd"/></clipPath><clipPath id="ad"><path d="M802.29-2180.27s.4-5.16,1-9.13,1.29-8.92,5.45-11.1c3.33-1.75,13.79-7.05,13.79-7.05h25.21s9.15,4.29,13.51,6.47a11.62,11.62,0,0,1,6.71,8.36c.6,3,1.19,12.45,1.19,12.45" style="fill:none;clip-rule:evenodd"/></clipPath><clipPath id="ae"><rect x="801.74" y="-2208.1" width="67.96" height="27.87" style="fill:none"/></clipPath><clipPath id="af"><polygon points="832.24 -2200.09 835.13 -2205.63 838.03 -2200.09 836.68 -2195.74 840.05 -2180.27 831.87 -2180.27 833.76 -2195.74 832.24 -2200.09" style="fill:none;clip-rule:evenodd"/></clipPath><clipPath id="ag"><path d="M827.17-2218.88v6.56a4.75,4.75,0,0,0,1.55,2.38c1.19.89,6.42,4.31,6.42,4.31l5.9-3.73a2.71,2.71,0,0,0,1.49-2.09v-7.45" style="fill:none;clip-rule:evenodd"/></clipPath><clipPath id="ah"><path d="M816.81-2246.43c.19,3,.6,14,3.43,19.49s7.88,9.23,10.26,10.12a11.48,11.48,0,0,0,8.63,0c3-1.34,7.59-5.65,8.93-9.22a40.13,40.13,0,0,0,2.23-11.46,71.37,71.37,0,0,0,0-9.82c-.29-4-4.89-13.1-4.89-13.1-7.35,2.58-14-3.86-22,1.19a13.45,13.45,0,0,0-6.55,12.8" style="fill:none;clip-rule:evenodd"/></clipPath><clipPath id="ai"><path d="M817.14-2241.83a4,4,0,0,0-5.09,3,6.48,6.48,0,0,0,2.38,7.59,10.08,10.08,0,0,0,4.61,1.11,110.7,110.7,0,0,1-1.9-11.69" style="fill:none;clip-rule:evenodd"/></clipPath><clipPath id="aj"><path d="M850.58-2241.83a4.15,4.15,0,0,1,5.52,2.31c2,4-.67,6.93-1.82,8-1.68,1.57-4.88,1.57-4.88,1.57a60.24,60.24,0,0,0,1.18-11.88" style="fill:none;clip-rule:evenodd"/></clipPath><clipPath id="ak"><path d="M848.33-2261.22a11.2,11.2,0,0,0-3.54-5.44,16.77,16.77,0,0,0-15.29-1.79c-6.91,2.69-8.67,7-11.86,7.23-4.39.29-6,3.48-4.35,7,2.6,5.69.69,8.4,2.06,11.9a5.64,5.64,0,0,0,1.94,2.49l-.36-4.74s5.67-5.5,7.3-10.78c0,0,6.25,3.71,13,3.1a35.79,35.79,0,0,0,7.37-1.49s2.42,6.4,5.75,8l.19,3.93,0,2.49c1.46-1.19,3-6.84,3.16-8.65a42.4,42.4,0,0,0,.09-7.86c-.37-2.88-1.41-4.88-5.47-5.37" style="fill:none;clip-rule:evenodd"/></clipPath><clipPath id="al"><path d="M827.17-2215.94s-3.6-.55-3.75,1.53-.89,7-.89,7,3,8.18,7.73,11.16l4.88-9.38s-6.6-4.3-7-4.9-.94-.57-.94-2.83Z" style="fill:none;clip-rule:evenodd"/></clipPath><clipPath id="am"><path d="M842.53-2215.94s3.3-.7,3.81,1.24,1.4,7.29,1.4,7.29-3,8.18-7.73,11.16l-4.88-9.38s6.6-4.3,7-4.9.37-.57.37-2.83Z" style="fill:none;clip-rule:evenodd"/></clipPath><clipPath id="an"><path d="M856.59-2239.77a4.7,4.7,0,0,0-4.3-2.95,5,5,0,0,0-1.28.17v-.35c0-1.33,0-2.75-.17-4.46-.17-2.17-1.41-5.43-2.6-8.23s-2.35-5.07-2.35-5.08l-.22-.43-.45.16a11.13,11.13,0,0,1-3.73.61c-3.58,0-7.23-1.44-11.21-1.45a13.11,13.11,0,0,0-7.22,2.09,13.85,13.85,0,0,0-6.83,12.2c0,.4,0,.76,0,1.1,0,.79.12,2.18.25,3.88-.17,0-.35,0-.55,0a4.47,4.47,0,0,0-2.38.66,5.09,5.09,0,0,0-2.06,2.87,8.37,8.37,0,0,0-.41,2.51,7,7,0,0,0,3,5.71,9.68,9.68,0,0,0,4.48,1.18,19.75,19.75,0,0,0,1.14,2.92,25.26,25.26,0,0,0,6.88,8.17v2h-.45a5.24,5.24,0,0,0-2,.33,2.06,2.06,0,0,0-1.34,1.78c-.07,1-.29,2.76-.49,4.25s-.4,2.7-.4,2.71l0,.13,0,.14a36,36,0,0,0,2.11,4.54c1.36,2.45,3.32,5.31,5.84,6.9l.51.31,4.66-9,4.66,9,.51-.31c2.53-1.59,4.49-4.45,5.85-6.9a36,36,0,0,0,2.11-4.54l0-.14,0-.14s-.88-5.26-1.42-7.34a2.22,2.22,0,0,0-1.32-1.48,4.71,4.71,0,0,0-1.73-.3c-.28,0-.52,0-.74,0v-2.24c.52-.43,1-.89,1.52-1.38a17.33,17.33,0,0,0,4-5.65,31.9,31.9,0,0,0,1.07-3.55,8.49,8.49,0,0,0,5-1.71,7.9,7.9,0,0,0,2.7-5.56A6.84,6.84,0,0,0,856.59-2239.77Zm-41.85,8.06a5.86,5.86,0,0,1-2.52-4.79,6.88,6.88,0,0,1,.36-2.17,4,4,0,0,1,1.58-2.27,3.29,3.29,0,0,1,1.8-.49,3.45,3.45,0,0,1,.63.06c.1,1.18.23,2.47.4,3.81a51,51,0,0,0,1.29,6.82A8.1,8.1,0,0,1,814.74-2231.71Zm15.33,34.61a18.91,18.91,0,0,1-5-6.12,33.54,33.54,0,0,1-1.51-3.09c-.25-.57-.41-1-.48-1.16.1-.7.73-4.94.87-6.9a1,1,0,0,1,.67-.84,4.31,4.31,0,0,1,1.53-.25c.18,0,.31,0,.45,0v3.24s0,.13.1.32a2.89,2.89,0,0,0,.26.8,5,5,0,0,0,.67.86.57.57,0,0,0,.11.11,4.43,4.43,0,0,0,.62.6c.73.54,2.84,1.95,4.45,3l1.58,1Zm3.69-10.1-1.67-1.11c-.85-.57-1.71-1.17-2.38-1.65-.34-.24-.62-.45-.83-.62l-.09-.07a4.41,4.41,0,0,1-.8-1.06c-.09-.19-.15-.35-.2-.48a8.31,8.31,0,0,1-.07-1.18v-4.36a13.76,13.76,0,0,0,2.59,1.43,13.58,13.58,0,0,0,4.72.88,10.39,10.39,0,0,0,4.33-.9,13.77,13.77,0,0,0,2.62-1.61v5.73a6.94,6.94,0,0,1,0,.91.25.25,0,0,0,0,.07,1.13,1.13,0,0,1-.21.37,14.34,14.34,0,0,1-1.35,1c-1,.73-2.41,1.66-3.53,2.41l-1.7,1.12Zm10.06-8.31a3.58,3.58,0,0,1,1.3.21,1.07,1.07,0,0,1,.68.74c.26,1,.61,2.79.89,4.36.24,1.32.43,2.41.48,2.73s-.23.6-.48,1.16c-1,2.29-3.36,7-6.49,9.23l-4.34-8.35,5.47-3.46a4.08,4.08,0,0,0,.84-.61,2.7,2.7,0,0,0,.91-1.95v-4A5.27,5.27,0,0,1,843.82-2215.51Zm3.72-10.73a16.24,16.24,0,0,1-3.72,5.25,18.81,18.81,0,0,1-4.91,3.67,9.74,9.74,0,0,1-3.88.8,12.6,12.6,0,0,1-4.34-.82c-2.2-.81-7.23-4.49-10-9.85a16.43,16.43,0,0,1-1-2.59l-.11-.49s-.33-1.42-.72-3.58-.88-5.08-1.17-8l0-.37h0c-.14-1.83-.21-3.35-.27-4.21l-.55,0,.55,0q0-.47,0-1a12.75,12.75,0,0,1,6.32-11.27,12,12,0,0,1,6.63-1.92c3.7,0,7.34,1.44,11.21,1.45a12.69,12.69,0,0,0,3.61-.54c.13.25.31.62.52,1.07.65,1.36,1.63,3.51,2.48,5.67a23.7,23.7,0,0,1,1.64,5.75c.12,1.68.17,3.07.17,4.38,0,1.78-.08,3.39-.17,5.37A39,39,0,0,1,847.54-2226.24Zm6.37-5.68a5.92,5.92,0,0,1-2.81,1.24c-.39.07-.73.11-1,.14a60.44,60.44,0,0,0,1.06-10.66v-.24a3.63,3.63,0,0,1,1.15-.18c1,0,2.3.36,3.31,2.35a5.76,5.76,0,0,1,.65,2.6A6.83,6.83,0,0,1,853.91-2231.92Z" style="fill:none;clip-rule:evenodd"/></clipPath><clipPath id="ao"><polygon points="836.68 -2195.83 835.22 -2195.83 833.76 -2195.83 835.22 -2195.83 836.68 -2195.83" style="fill:none;clip-rule:evenodd"/></clipPath><clipPath id="ap"><polygon points="836.68 -2195.83 836.68 -2196.39 835.22 -2196.39 833.76 -2196.39 833.76 -2195.28 835.22 -2195.28 836.68 -2195.28 836.68 -2196.39 836.68 -2195.83 836.68 -2196.39 835.22 -2196.39 833.76 -2196.39 833.76 -2195.28 835.22 -2195.28 836.68 -2195.28 836.68 -2196.39 836.68 -2195.83" style="fill:none;clip-rule:evenodd"/></clipPath><clipPath id="aq"><path d="M813-2238a2.18,2.18,0,0,1,1.53-2c1.4-.54,3.18,1.3,3.26,1.38l-.43.41c-.44-.45-1.76-1.57-2.61-1.24a1.61,1.61,0,0,0-1.15,1.46Z" style="fill:none;clip-rule:evenodd"/></clipPath><clipPath id="ar"><path d="M855.21-2238a2.17,2.17,0,0,0-1.56-2c-1.43-.54-3.24,1.31-3.32,1.38l.44.42c.45-.46,1.79-1.58,2.66-1.24a1.6,1.6,0,0,1,1.17,1.45Z" style="fill:none;clip-rule:evenodd"/></clipPath><clipPath id="as"><rect x="801.63" y="-2282.77" width="184.46" height="102.54" style="fill:none"/></clipPath></defs><title>icon__goldcircle</title><circlecx="29" cy="29" r="29" style="fill:#161a1e"/><path d="M29,1.5A27.5,27.5,0,1,1,1.5,29,27.54,27.54,0,0,1,29,1.5M29,0A29,29,0,1,0,58,29,29,29,0,0,0,29,0Z" style="fill:url(#a)"/><circle cx="29" cy="29" r="23.02" style="fill:#161a1e"/><path d="M29,9A20,20,0,1,1,9,29,20,20,0,0,1,29,9m0-3A23,23,0,1,0,52,29,23,23,0,0,0,29,6Z" style="fill:url(#b)"/><polygon points="39.35 26.33 25.77 26.33 32.32 19.77 28.78 16.24 16.25 28.77 28.69 41.67 32.29 38.2 25.66 31.33 39.35 31.33 39.35 26.33" style="fill:url(#c)"/></svg>