<svg xmlns="http://www.w3.org/2000/svg" viewBox="0 0 64 64"><defs><style>.cls-1{fill:#f7fafd;}.cls-2{fill:#cad4dd;}.cls-3{fill:#2965ff;}.cls-4{fill:#f9f9f9;}.cls-5{fill:#8e97a5;}</style></defs><g id="레이어_2" data-name="레이어 2"><g id="Layer_1" data-name="Layer 1"><rect class="cls-1" width="64" height="64" rx="10"/><rect class="cls-2" x="11.71" y="8.23" width="17.79" height="47.55" rx="3"/><path class="cls-3" d="M14.71,8.23H26.5a3,3,0,0,1,3,3v1.54a0,0,0,0,1,0,0H11.71a0,0,0,0,1,0,0V11.23a3,3,0,0,1,3-3Z"/><rect class="cls-2" x="33.5" y="8.23" width="17.79" height="47.55" rx="3"/><rect class="cls-4" x="14.41" y="29.39" width="12.4" height="8.11" rx="1"/><rect class="cls-5" x="14.41" y="17.65" width="12.4" height="8.11" rx="1"/><rect class="cls-4" x="14.41" y="41.13" width="12.4" height="8.11" rx="1"/><rect class="cls-4" x="36.2" y="17.65" width="12.4" height="8.11" rx="1"/><rect class="cls-4" x="36.2" y="29.39" width="12.4" height="8.11" rx="1"/><rect class="cls-4" x="36.2" y="41.13" width="12.4" height="8.11" rx="1"/><path class="cls-5" d="M36.5,8.23H48.29a3,3,0,0,1,3,3v1.54a0,0,0,0,1,0,0H33.5a0,0,0,0,1,0,0V11.23a3,3,0,0,1,3-3Z"/><rect class="cls-4" x="17.94" y="14.92" width="13.8" height="8.11" rx="1"/></g></g></svg>