<svg xmlns="http://www.w3.org/2000/svg" viewBox="0 0 64 64"><defs><style>.cls-1{fill:#f7fafd;}.cls-2{fill:#cad4dd;}.cls-3{fill:#f9f9f9;}.cls-4{fill:#2965ff;}</style></defs><g id="레이어_2" data-name="레이어 2"><g id="Layer_1" data-name="Layer 1"><rect class="cls-1" width="64" height="64" rx="10"/><path class="cls-2" d="M51.81,20V52.43a4.33,4.33,0,0,1-4.33,4.33h-31a4.33,4.33,0,0,1-4.33-4.33V11.57a4.33,4.33,0,0,1,4.33-4.33H39Z"/><rect class="cls-3" x="16.46" y="25.39" width="30.46" height="4.44" rx="1"/><rect class="cls-3" x="16.46" y="34.2" width="30.46" height="4.44" rx="1"/><rect class="cls-3" x="16.46" y="42.96" width="24.03" height="4.44" rx="1"/><path class="cls-4" d="M51.81,20H42.12A3.09,3.09,0,0,1,39,16.93V7.24Z"/><path class="cls-4" d="M22.17,17.21a2.43,2.43,0,1,0-2.43-2.43A2.43,2.43,0,0,0,22.17,17.21Z"/><path class="cls-4" d="M26.88,21.54v-.4A3.1,3.1,0,0,0,23.77,18H20.56a3.1,3.1,0,0,0-3.1,3.1v.4Z"/></g></g></svg>