<svg xmlns="http://www.w3.org/2000/svg" viewBox="0 0 64 64"><defs><style>.cls-1{fill:#f7fafd;}.cls-2{fill:#cad4dd;}.cls-3{fill:#2965ff;}.cls-4{fill:#f9f9f9;}.cls-5{fill:#8e97a5;}</style></defs><g id="레이어_2" data-name="레이어 2"><g id="Layer_1" data-name="Layer 1"><rect class="cls-1" width="64" height="64" rx="10"/><rect class="cls-2" x="10.6" y="15.03" width="42.8" height="37.87" rx="4"/><path class="cls-3" d="M49.4,15H45.6V12.69a2.1,2.1,0,0,0-4.2,0V15H22.6V12.69a2.1,2.1,0,0,0-4.2,0V15H14.6a4,4,0,0,0-4,4v2.84H53.4V19A4,4,0,0,0,49.4,15Z"/><rect class="cls-4" x="27.23" y="25.42" width="21.23" height="4.9" rx="1"/><rect class="cls-3" x="15.54" y="25.42" width="8.01" height="4.9" rx="1"/><rect class="cls-4" x="15.54" y="34.55" width="32.93" height="4.9" rx="1"/><rect class="cls-4" x="15.54" y="43.68" width="22.86" height="4.9" rx="1"/><rect class="cls-5" x="41.4" y="43.68" width="7.06" height="4.9" rx="1"/></g></g></svg>