<svg xmlns="http://www.w3.org/2000/svg" viewBox="0 0 64 64"><defs><style>.cls-1{fill:#f7fafd;}.cls-2{fill:#cad4dd;}.cls-3{fill:#2965ff;}</style></defs><g id="레이어_2" data-name="레이어 2"><g id="Layer_1" data-name="Layer 1"><rect class="cls-1" width="64" height="64" rx="10"/><circle class="cls-2" cx="20.23" cy="23.06" r="7.12"/><path class="cls-2" d="M20.23,48.06A24.46,24.46,0,0,0,32.14,45,3.75,3.75,0,0,0,34,41.7h0a9.08,9.08,0,0,0-9.09-9.08H15.53A9.08,9.08,0,0,0,6.44,41.7h0A3.75,3.75,0,0,0,8.33,45,24.55,24.55,0,0,0,20.23,48.06Z"/><circle class="cls-3" cx="43.77" cy="23.06" r="7.12"/><path class="cls-3" d="M43.77,48.06A24.45,24.45,0,0,0,55.67,45a3.75,3.75,0,0,0,1.89-3.28h0a9.08,9.08,0,0,0-9.09-9.08H39.06A9.08,9.08,0,0,0,30,41.7h0A3.74,3.74,0,0,0,31.87,45,24.5,24.5,0,0,0,43.77,48.06Z"/></g></g></svg>