<svg xmlns="http://www.w3.org/2000/svg" viewBox="0 0 64 64"><defs><style>.cls-1{fill:#f7fafd;}.cls-2{fill:#2965ff;}.cls-3{fill:#cad4dd;}.cls-4{fill:#f9f9f9;}</style></defs><g id="레이어_2" data-name="레이어 2"><g id="Layer_1" data-name="Layer 1"><rect class="cls-1" width="64" height="64" rx="10"/><path class="cls-2" d="M55.56,39.06a11.58,11.58,0,0,0-3-7.68c-2.46,9.13-11.59,16-22.6,16.31a15.88,15.88,0,0,0,10.85,4.12A16.64,16.64,0,0,0,45,51.28,10,10,0,0,0,51,55.36a.69.69,0,0,0,.76-1c-.89-1.73-.8-4.43-.6-6.25A11.92,11.92,0,0,0,55.56,39.06Z"/><path class="cls-3" d="M29.14,8.63c-11.43,0-20.7,8-20.7,17.85a16.7,16.7,0,0,0,6.13,12.68c.28,2.55.41,6.33-.83,8.76a1,1,0,0,0,1,1.39A13.91,13.91,0,0,0,23.3,43.6a23.71,23.71,0,0,0,5.84.74c11.42,0,20.69-8,20.69-17.86S40.56,8.63,29.14,8.63Z"/><circle class="cls-4" cx="20.13" cy="26.48" r="2.49"/><circle class="cls-4" cx="29.14" cy="26.48" r="2.49"/><circle class="cls-4" cx="38.14" cy="26.48" r="2.49"/></g></g></svg>